{"title":"Wild.Wild.West.1999.720p.BRRip.x264.AAC.mp4-Zen_Bud","uid":6463292,"size":1472491479,"categoryP":"video","categoryS":"hd___movies","magnet":"?xt=urn:btih:a1d2c63b6f2d96b8bbf74061357da52c624b1d3b&amp;dn=Wild.Wild.West.1999.720p.BRRip.x264.AAC.mp4-Zen_Bud&amp;tr=udp%3A%2F%2Ftracker.openbittorrent.com%3A80&amp;tr=udp%3A%2F%2Fopen.demonii.com%3A1337&amp;tr=udp%3A%2F%2Ftracker.coppersurfer.tk%3A6969&amp;tr=udp%3A%2F%2Fexodus.desync.com%3A6969","seeders":0,"leechers":0,"uploader":"Zen_Bud","files":-1,"time":1307868609,"description":"              Wild.Wild.West.1999.720p.BRRip.x264.AAC.mp4-Zen_Bud\n\nFormat                           : MPEG-4\nFile size                        : 1.37 GiB\nDuration                         : 1h 46mn\nOverall bit rate                 : 1 852 Kbps\n \n\n\nVideo\n\nFormat                           : AVC\nFormat profile                   : &lt;a class=&quot;__cf_email__&quot; href=&quot;/cdn-cgi/l/email-protection&quot; data-cfemail=&quot;9dd0fcf4f3ddd1aeb3ac&quot;&gt;[email&amp;#160;protected]&lt;/a&gt;&lt;script cf-hash='f9e31' type=&quot;text/javascript&quot;&gt;\n/* &lt;![CDATA[ */!function(){try{var t=&quot;currentScript&quot;in document?document.currentScript:function(){for(var t=document.getElementsByTagName(&quot;script&quot;),e=t.length;e--;)if(t[e].getAttribute(&quot;cf-hash&quot;))return t[e]}();if(t&amp;&amp;t.previousSibling){var e,r,n,i,c=t.previousSibling,a=c.getAttribute(&quot;data-cfemail&quot;);if(a){for(e=&quot;&quot;,r=parseInt(a.substr(0,2),16),n=2;a.length-n;n+=2)i=parseInt(a.substr(n,2),16)^r,e+=String.fromCharCode(i);e=document.createTextNode(e),c.parentNode.replaceChild(e,c)}}}catch(u){}}();/* ]]&gt; */&lt;/script&gt;\nFormat settings, CABAC           : Yes\nDuration                         : 1h 46mn\nBit rate                         : 1 655 Kbps\nWidth                            : 1 280 pixels\nHeight                           : 720 pixels\nDisplay aspect ratio             : 16:9\nFrame rate                       : 23.976 fps\nStream size                      : 1.23 GiB (89%)\nWriting library                  : x264 core 115\n\n\nAudio\n\nFormat                           : AAC\nDuration                         : 1h 46mn\nBit rate                         : 192 Kbps\nChannel(s)                       : 2 channels\nChannel positions                : Front: L R\nSampling rate                    : 48.0 KHz\nStream size                      : 145 MiB (10%)\nLanguage                         : English\n\n\nSubtitel                         : Svenska [.srt]\n\n============================================================================\n\nThe two best hired guns in the West must save President Grant from the \nclutches of a 19th century inventor-villain.\n\n============================================================================\n &lt;a href=&quot;\nhttp://img3.imageshack.us/i/vlcsnap2011061208h31m13.png/&quot; rel=&quot;nofollow&quot; target=&quot;_NEW&quot;&gt;\nhttp://img3.imageshack.us/i/vlcsnap2011061208h31m13.png/&lt;/a&gt;\n &lt;a href=&quot;\nhttp://img690.imageshack.us/i/vlcsnap2011061208h32m14.png/&quot; rel=&quot;nofollow&quot; target=&quot;_NEW&quot;&gt;\nhttp://img690.imageshack.us/i/vlcsnap2011061208h32m14.png/&lt;/a&gt;\n &lt;a href=&quot;\nhttp://img194.imageshack.us/i/vlcsnap2011061208h32m49.png/&quot; rel=&quot;nofollow&quot; target=&quot;_NEW&quot;&gt;\nhttp://img194.imageshack.us/i/vlcsnap2011061208h32m49.png/&lt;/a&gt;\n &lt;a href=&quot;\nhttp://img806.imageshack.us/i/vlcsnap2011061208h33m27.png/&quot; rel=&quot;nofollow&quot; target=&quot;_NEW&quot;&gt;\nhttp://img806.imageshack.us/i/vlcsnap2011061208h33m27.png/&lt;/a&gt;\n &lt;a href=&quot;\nhttp://img585.imageshack.us/i/vlcsnap2011061208h34m46.png/&quot; rel=&quot;nofollow&quot; target=&quot;_NEW&quot;&gt;\nhttp://img585.imageshack.us/i/vlcsnap2011061208h34m46.png/&lt;/a&gt; \n\n\n","torrent":{"xt":"urn:btih:a1d2c63b6f2d96b8bbf74061357da52c624b1d3b","amp;dn":"Wild.Wild.West.1999.720p.BRRip.x264.AAC.mp4-Zen_Bud","amp;tr":["udp%3A%2F%2Ftracker.openbittorrent.com%3A80","udp%3A%2F%2Fopen.demonii.com%3A1337","udp%3A%2F%2Ftracker.coppersurfer.tk%3A6969","udp%3A%2F%2Fexodus.desync.com%3A6969"],"infoHash":"a1d2c63b6f2d96b8bbf74061357da52c624b1d3b","infoHashBuffer":{"type":"Buffer","data":[161,210,198,59,111,45,150,184,187,247,64,97,53,125,165,44,98,75,29,59]},"announce":[],"urlList":[]}}